<?xml version="1.0" encoding="utf-8"?>
<!-- Generator: Adobe Illustrator 20.1.0, SVG Export Plug-In . SVG Version: 6.00 Build 0)  -->
<svg version="1.1" id="Layer_1" xmlns="http://www.w3.org/2000/svg" xmlns:xlink="http://www.w3.org/1999/xlink" x="0px" y="0px"
	 viewBox="0 0 128.1 123.3" style="enable-background:new 0 0 128.1 123.3;" xml:space="preserve">
<style type="text/css">
	.st0{fill:url(#SVGID_1_);}
	.st1{opacity:0.5;fill:url(#SVGID_2_);}
	.st2{fill:#FFFFFF;}
	.st3{fill:url(#SVGID_3_);}
	.st4{fill:url(#SVGID_4_);}
	.st5{fill:url(#SVGID_5_);}
	.st6{fill:url(#SVGID_6_);}
	.st7{fill:url(#SVGID_7_);}
	.st8{fill:url(#SVGID_8_);}
	.st9{fill:url(#SVGID_9_);}
	.st10{fill:url(#SVGID_10_);}
</style>
<g>
	<linearGradient id="SVGID_1_" gradientUnits="userSpaceOnUse" x1="6.2714" y1="61.6726" x2="121.7846" y2="61.6726">
		<stop offset="0" style="stop-color:#68B430"/>
		<stop offset="1" style="stop-color:#C6D326"/>
	</linearGradient>
	<circle class="st0" cx="64" cy="61.7" r="57.8"/>
	<linearGradient id="SVGID_2_" gradientUnits="userSpaceOnUse" x1="64.0281" y1="93.3149" x2="64.0281" y2="30.0312">
		<stop offset="0.6073" style="stop-color:#FFFFFF;stop-opacity:0.3"/>
		<stop offset="0.6987" style="stop-color:#FBFDFF;stop-opacity:0.4651"/>
		<stop offset="0.8092" style="stop-color:#EFF8FE;stop-opacity:0.6648"/>
		<stop offset="0.9292" style="stop-color:#DAEFFD;stop-opacity:0.8815"/>
		<stop offset="0.9948" style="stop-color:#CBE9FB"/>
	</linearGradient>
	<circle class="st1" cx="64" cy="61.7" r="31.6"/>
	<g transform="matrix(1, 0, 0, 1, -0.929889, -2.292227)">
		<path class="st2" d="M 96.16 59.415 C 96.407 61.002 96.573 62.618 96.573 64.274 C 96.573 81.672 82.412 95.775 64.947
		95.775 C 47.481 95.775 33.323 81.672 33.323 64.274 C 33.323 46.877 47.481 32.775 64.947 32.775 C 71.695
		32.775 77.939 34.898 83.072 38.483 L 78.986 42.654 C 74.935 40.039 70.123 38.502 64.947 38.502 C 50.684
		38.502 39.073 50.065 39.073 64.274 C 39.073 78.485 50.684 90.047 64.947 90.047 C 79.019 90.047 90.475
		78.799 90.795 64.861 L 96.16 59.415 Z M 93.423 36.118 L 66.385 63.72 L 55.337 53.37 L 46.439 62.244 L 66.385
		81.458 L 102.323 44.982 L 93.423 36.118 Z"/>
	</g>
</g>
</svg>