<?xml version="1.0" encoding="utf-8"?>
<!-- Generator: Adobe Illustrator 20.1.0, SVG Export Plug-In . SVG Version: 6.00 Build 0)  -->
<svg version="1.1" id="Layer_1" xmlns="http://www.w3.org/2000/svg" xmlns:xlink="http://www.w3.org/1999/xlink" x="0px" y="0px"
	 viewBox="0 0 128.1 123.3" style="enable-background:new 0 0 128.1 123.3;" xml:space="preserve">
<style type="text/css">
	.st0{fill:url(#SVGID_1_);}
	.st1{opacity:0.5;fill:url(#SVGID_2_);}
	.st2{fill:#FFFFFF;}
	.st3{fill:url(#SVGID_3_);}
	.st4{fill:url(#SVGID_4_);}
	.st5{fill:url(#SVGID_5_);}
	.st6{fill:url(#SVGID_6_);}
	.st7{fill:url(#SVGID_7_);}
	.st8{fill:url(#SVGID_8_);}
	.st9{fill:url(#SVGID_9_);}
	.st10{fill:url(#SVGID_10_);}
</style>
<g>
	<linearGradient id="SVGID_1_" gradientUnits="userSpaceOnUse" x1="105.9613" y1="72.0554" x2="9.1377" y2="47.2494">
		<stop  offset="7.361960e-02" style="stop-color:#56C3F1"/>
		<stop  offset="7.805537e-02" style="stop-color:#55C2F0"/>
		<stop  offset="0.3137" style="stop-color:#4DA1D9"/>
		<stop  offset="0.5318" style="stop-color:#4B85C5"/>
		<stop  offset="0.7258" style="stop-color:#4B71B6"/>
		<stop  offset="0.8885" style="stop-color:#4B64AD"/>
		<stop  offset="1" style="stop-color:#4B60A9"/>
	</linearGradient>
	<circle class="st0" cx="64" cy="61.3" r="57.8"/>
	<g>
		<path class="st2" d="M33.5,60.6c0,1.5,0.3,3.1,0.9,4.8l0,0c0.6,1.3,1.4,2.6,2.5,3.7l18.8,18.8c2.2,2.2,5.2,3.5,8.4,3.5
			c3.2,0,6.2-1.2,8.4-3.5l18.7-18.7c2.4-2.4,3.5-5.5,3.5-8.6c-8,7.4-18.8,11.9-30.5,11.9C52.2,72.4,41.5,67.9,33.5,60.6z"/>
		<path class="st2" d="M94.6,61.3c-0.2-2.8-1.3-5.5-3.4-7.6L72.3,34.8c-2.3-2.2-5.2-3.5-8.4-3.5c-3.2,0-6.2,1.2-8.4,3.5l-0.9,0.9
			L36.8,53.5c-2.1,2.1-3.2,4.8-3.3,7.8c8.1-7.4,18.8-11.9,30.6-11.9C75.8,49.4,86.6,53.9,94.6,61.3z"/>
		<circle class="st2" cx="64" cy="60" r="8.8"/>
	</g>
</g>
</svg>
